:FULLY-SPECIFIED
:FORCE-ALL-JOINTS-BE-3DOF
:DEGREES
102
root 7.34209 16.7162 -26.7667 0 0 0
lfemur 0 0 0
ltibia 0 0 0
lfoot -17.4408 -6.78147 -0.0107373
ltoes 0 0 0
rfemur -38.8844 -4.34557 2.847
rtibia 84.2134 -0 0
rfoot 28.5203 19.3199 1.51541
rtoes 16.6143 -0 0
lowerback 0 0 0
upperback -0.424876 1.82014 1.94659
thorax -1.9723 0.917741 1.94772
lowerneck -10.6074 -4.74684 2.25452
upperneck 0 0 0
head 1.47273 -3.25879 -0.394669
lclavicle 0 0 0
lhumerus 0 0 0
lradius 0 0 0
lwrist 14.7219 0 0
lhand 6.92743 8.50705 0.0706527
lfingers 0 0 0
lthumb 0 0 0
rclavicle 0 0 0
rhumerus 0 0 0
rradius 0 0 0
rwrist 4.11828 0 0
rhand 0 0 0
rfingers 0 0 0
rthumb 0 0 0
103
root 7.39458 16.7197 -26.7334 0 0 0
lfemur 0 0 0
ltibia 0 0 0
lfoot -17.3937 -7.18173 -0.00646224
ltoes 0 0 0
rfemur -39.8633 -4.50736 2.11778
rtibia 86.3109 -0 0
rfoot 30.5594 20.4993 0.908509
rtoes 17.5204 -0 0
lowerback 0 0 0
upperback -0.371486 1.70394 1.99048
thorax -2.04185 0.862781 2.05663
lowerneck -10.6172 -4.78406 2.21691
upperneck 0 0 0
head 1.5239 -3.28089 -0.399925
lclavicle 0 0 0
lhumerus 0 0 0
lradius 0 0 0
lwrist 14.9078 0 0
lhand 7.51554 8.7172 0.042516
lfingers 0 0 0
lthumb 0 0 0
rclavicle 0 0 0
rhumerus 0 0 0
rradius 0 0 0
rwrist 4.01445 0 0
rhand 0 0 0
rfingers 0 0 0
rthumb 0 0 0
104
root 7.44379 16.7234 -26.7023 0 0 0
lfemur 0 0 0
ltibia 0 0 0
lfoot -17.3584 -7.48192 -0.0030401
ltoes 0 0 0
rfemur -40.5963 -4.63684 1.57262
rtibia 87.884 -0 0
rfoot 32.0801 21.3693 0.426081
rtoes 18.2 -0 0
lowerback 0 0 0
upperback -0.331505 1.61676 2.02333
thorax -2.09409 0.821649 2.13836
lowerneck -10.6245 -4.81197 2.18871
upperneck 0 0 0
head 1.56229 -3.29747 -0.40388
lclavicle 0 0 0
lhumerus 0 0 0
lradius 0 0 0
lwrist 15.0472 0 0
lhand 7.95655 8.87462 0.0199988
lfingers 0 0 0
lthumb 0 0 0
rclavicle 0 0 0
rhumerus 0 0 0
rradius 0 0 0
rwrist 3.93657 0 0
rhand 0 0 0
rfingers 0 0 0
rthumb 0 0 0
105
root 7.48928 16.7272 -26.6736 0 0 0
lfemur 0 0 0
ltibia 0 0 0
lfoot -17.3362 -7.67049 -0.000795712
ltoes 0 0 0
rfemur -41.0562 -4.72172 1.23097
rtibia 88.8722 -0 0
rfoot 33.0316 21.9091 0.111298
rtoes 18.6269 -0 0
lowerback 0 0 0
upperback -0.306415 1.56199 2.04394
thorax -2.12693 0.795847 2.18972
lowerneck -10.6291 -4.82951 2.171
upperneck 0 0 0
head 1.5864 -3.30788 -0.40637
lclavicle 0 0 0
lhumerus 0 0 0
lradius 0 0 0
lwrist 15.1348 0 0
lhand 8.23357 8.97342 0.00523406
lfingers 0 0 0
lthumb 0 0 0
rclavicle 0 0 0
rhumerus 0 0 0
rradius 0 0 0
rwrist 3.88764 0 0
rhand 0 0 0
rfingers 0 0 0
rthumb 0 0 0
106
root 7.53062 16.7313 -26.6477 1.59258 12.283 -3.03397
lfemur -23.6313 -2.46527 -12.7543
ltibia 37.3992 0 0
lfoot -17.3285 -7.73592 0
ltoes 24.8613 0 0
rfemur -41.2156 -4.75181 1.11259
rtibia 89.2151 0 0
rfoot 33.361 22.0951 0
rtoes 18.775 0 0
lowerback 3.15315 1.13213 -0.317021
upperback -0.297715 1.54298 2.05108
thorax -2.13833 0.786902 2.20754
lowerneck -10.6307 -4.8356 2.16485
upperneck -0.487372 -6.69874 0.822634
head 1.59477 -3.31149 -0.407235
lclavicle -1.05232e-14 -1.78906e-15 0
lhumerus -46.6826 -10.7064 94.0168
lradius 49.2289 0 0
lwrist 15.1652 0 0
lhand 8.32967 9.00768 0
lfingers 7.12502 0 0
lthumb 33.5404 35.8923 0
rclavicle -1.05232e-14 -1.78906e-15 0
rhumerus -42.7698 1.23965 -69.1841
rradius 50.4904 0 0
rwrist 3.87067 0 0
rhand -22.1336 -15.8497 0
rfingers 7.12502 0 0
rthumb 4.27979 -45.7864 0
107
root 7.56958 16.7363 -26.6245 1.27011 12.1473 -2.90553
lfemur -23.0648 -2.1535 -12.9928
ltibia 37.177 -0 0
lfoot -17.252 -7.80465 -0.00158259
ltoes 0 0 0
rfemur -42.0374 -5.53565 1.80136
rtibia 0 0 0
rfoot 32.4211 22.0894 0.00165051
rtoes 17.3156 -0 0
lowerback 3.4919 1.03999 -0.43484
upperback 0 0 0
thorax -2.15756 0.723405 2.25324
lowerneck -10.6771 -4.73824 2.13089
upperneck 0 0 0
head 0 0 0
lclavicle 0 0 0
lhumerus -46.5272 -10.846 93.9652
lradius 49.2741 -0 0
lwrist 0 0 0
lhand 8.29065 8.923 0.000994477
lfingers 0 0 0
lthumb 33.5033 35.8154 0.000858903
rclavicle 0 0 0
rhumerus 0 0 0
rradius 50.9646 -0 0
rwrist 0 0 0
rhand 0 0 0
rfingers 0 0 0
rthumb 5.14497 -45.7464 0.0106518
108
root 7.6081 16.7429 -26.6038 0.854765 11.9737 -2.73913
lfemur -22.3377 -1.7487 -13.2953
ltibia 36.8911 -0 0
lfoot -17.1535 -7.89314 -0.00348484
ltoes 0 0 0
rfemur -43.1109 -6.53 2.70605
rtibia 0 0 0
rfoot 31.2111 22.0821 0.00363776
rtoes 15.4369 -0 0
lowerback 3.92825 0.922396 -0.587309
upperback 0 0 0
thorax -2.1824 0.641685 2.31211
lowerneck -10.7369 -4.61294 2.08707
upperneck 0 0 0
head 0 0 0
lclavicle 0 0 0
lhumerus -46.3269 -11.0256 93.8981
lradius 49.3322 -0 0
lwrist 0 0 0
lhand 8.24042 8.81399 0.00218982
lfingers 0 0 0
lthumb 33.4555 35.7164 0.00189129
rclavicle 0 0 0
rhumerus 0 0 0
rradius 51.575 -0 0
rwrist 0 0 0
rhand 0 0 0
rfingers 0 0 0
rthumb 6.25878 -45.6947 0.0234735
109
root 7.646 16.7508 -26.5854 0.357503 11.7675 -2.5385
lfemur -21.4707 -1.25941 -13.6503
ltibia 36.5489 -0 0
lfoot -17.0357 -7.999 -0.00556091
ltoes 0 0 0
rfemur -44.4189 -7.69705 3.81548
rtibia 0 0 0
rfoot 29.7634 22.0732 0.00581079
rtoes 13.1892 -0 0
lowerback 4.4507 0.783238 -0.770892
upperback 0 0 0
thorax -2.21222 0.543946 2.38258
lowerneck -10.8086 -4.46309 2.03447
upperneck 0 0 0
head 0 0 0
lclavicle 0 0 0
lhumerus -46.0868 -11.24 93.817
lradius 49.4018 -0 0
lwrist 0 0 0
lhand 8.18032 8.68357 0.00349438
lfingers 0 0 0
lthumb 33.3983 35.598 0.003018
rclavicle 0 0 0
rhumerus 0 0 0
rradius 52.3053 -0 0
rwrist 0 0 0
rhand 0 0 0
rfingers 0 0 0
rthumb 7.59138 -45.6325 0.0374897
110
root 7.6831 16.7598 -26.5692 -0.210714 11.5342 -2.30738
lfemur -20.4846 -0.694259 -14.0465
ltibia 36.1582 -0 0
lfoot -16.9012 -8.11989 -0.00766514
ltoes 0 0 0
rfemur -45.9448 -8.99808 5.11882
rtibia 0 0 0
rfoot 28.1104 22.0631 0.00801774
rtoes 10.6227 -0 0
lowerback 5.04776 0.626403 -0.98204
upperback 0 0 0
thorax -2.24641 0.432394 2.46311
lowerneck -10.8906 -4.29207 1.9742
upperneck 0 0 0
head 0 0 0
lclavicle 0 0 0
lhumerus -45.8121 -11.4845 93.7232
lradius 49.4813 -0 0
lwrist 0 0 0
lhand 8.11169 8.53465 0.00481663
lfingers 0 0 0
lthumb 33.3331 35.4628 0.00415998
rclavicle 0 0 0
rhumerus 0 0 0
rradius 53.1392 -0 0
rwrist 0 0 0
rhand 0 0 0
rfingers 0 0 0
rthumb 9.11295 -45.5612 0.0517203
111
root 7.71921 16.7696 -26.5548 -0.838923 11.2791 -2.04958
lfemur -19.4001 -0.0622061 -14.4726
ltibia 35.7267 -0 0
lfoot -16.7526 -8.25342 -0.00965947
ltoes 0 0 0
rfemur -47.6716 -10.3942 6.60463
rtibia 0 0 0
rfoot 26.2846 22.0518 0.0101136
rtoes 7.78789 -0 0
lowerback 5.7079 0.455736 -1.21715
upperback 0 0 0
thorax -2.28437 0.309232 2.55213
lowerneck -10.9813 -4.10327 1.90736
upperneck 0 0 0
head 0 0 0
lclavicle 0 0 0
lhumerus -45.5079 -11.7541 93.6181
lradius 49.569 -0 0
lwrist 0 0 0
lhand 8.03588 8.37015 0.00606982
lfingers 0 0 0
lthumb 33.261 35.3134 0.00524231
rclavicle 0 0 0
rhumerus 0 0 0
rradius 54.0603 -0 0
rwrist 0 0 0
rhand 0 0 0
rfingers 0 0 0
rthumb 10.7937 -45.482 0.0652305
